<svg width="213" height="74" viewBox="0 0 213 74" fill="none" xmlns="http://www.w3.org/2000/svg">
<path d="M28.3999 72.7999C26.4666 72.8666 24.5332 72.6999 22.5999 72.2999C20.6666 71.8999 19.0332 71.0666 17.6999 69.7999C17.7666 68.1332 17.7332 65.6666 17.5999 62.3999C17.5332 59.1332 17.3666 55.4999 17.0999 51.4999C16.8332 47.4332 16.3999 43.3332 15.7999 39.1999C15.2666 35.0666 14.5332 31.2666 13.5999 27.7999C12.7332 24.2666 11.6666 21.4332 10.3999 19.2999C9.13324 17.1666 7.63324 16.0999 5.8999 16.0999C4.36657 16.0999 2.63324 16.9332 0.699902 18.5999L-9.74983e-05 17.9999C1.86657 12.2666 4.2999 7.8999 7.2999 4.8999C10.3666 1.8999 13.5332 0.399899 16.7999 0.399899C19.6666 0.399899 22.0666 1.3999 23.9999 3.3999C25.9332 5.3999 27.4666 8.0999 28.5999 11.4999C29.7999 14.8332 30.6332 18.5999 31.0999 22.7999C31.6332 26.9332 31.8999 31.1666 31.8999 35.4999C31.8999 38.9666 31.7666 42.3666 31.4999 45.6999C31.2332 49.0332 30.8666 52.0999 30.3999 54.8999C33.9332 50.4332 36.8999 45.5666 39.2999 40.2999C41.6999 34.9666 43.5332 29.6999 44.7999 24.4999C46.0666 19.2332 46.6999 14.4999 46.6999 10.2999C46.6999 9.4999 46.6666 8.6999 46.5999 7.8999C46.5332 7.03323 46.4332 6.26656 46.2999 5.5999C47.6999 3.7999 49.4999 2.43323 51.6999 1.4999C53.8999 0.499898 56.0999 -0.000101328 58.2999 -0.000101328C60.4332 -0.000101328 62.2999 0.466565 63.8999 1.3999C65.4999 2.26657 66.4999 3.66657 66.8999 5.5999C66.0332 11.9332 64.2999 18.2666 61.6999 24.5999C59.1666 30.9332 56.0666 37.0666 52.3999 42.9999C48.7332 48.8666 44.7999 54.3332 40.5999 59.3999C36.4666 64.4666 32.3999 68.9332 28.3999 72.7999ZM84.4116 73.0999C79.545 73.0999 75.5116 72.1332 72.3116 70.1999C69.1116 68.1999 66.7116 65.5999 65.1116 62.3999C63.5116 59.1332 62.7116 55.6332 62.7116 51.8999C62.7116 48.3666 63.3783 44.8332 64.7116 41.2999C66.1116 37.6999 68.1116 34.4332 70.7116 31.4999C73.3783 28.5666 76.5783 26.1999 80.3116 24.3999C84.1116 22.5999 88.3783 21.6999 93.1116 21.6999C98.9783 21.6999 103.245 23.0332 105.912 25.6999C108.645 28.2999 110.012 31.4666 110.012 35.1999C110.012 38.3999 109.145 41.3666 107.412 44.0999C105.745 46.7666 103.512 48.9332 100.712 50.5999C97.9116 52.1999 94.845 52.9999 91.5116 52.9999C89.7783 52.9999 88.0116 52.7332 86.2116 52.1999C84.4116 51.6666 82.645 50.8332 80.9116 49.6999C81.245 53.8332 82.445 56.8332 84.5116 58.6999C86.5783 60.5666 89.045 61.4999 91.9116 61.4999C93.9116 61.4999 95.9116 61.1332 97.9116 60.3999C99.9116 59.5999 101.745 58.5999 103.412 57.3999C105.145 56.1332 106.478 54.7999 107.412 53.3999L108.112 53.8999C108.112 57.3666 107.378 60.3332 105.912 62.7999C104.512 65.1999 102.645 67.1666 100.312 68.6999C97.9783 70.2332 95.4116 71.3666 92.6116 72.0999C89.8783 72.7666 87.145 73.0999 84.4116 73.0999ZM86.7116 46.0999C88.845 46.0999 90.5783 45.4999 91.9116 44.2999C93.245 43.0332 94.245 41.5666 94.9116 39.8999C95.5783 38.2332 95.9116 36.7666 95.9116 35.4999C95.9116 33.9666 95.4783 32.6999 94.6116 31.6999C93.745 30.6332 92.545 30.0999 91.0116 30.0999C89.8116 30.0999 88.4783 30.5332 87.0116 31.3999C85.6116 32.2666 84.345 33.7666 83.2116 35.8999C82.0783 37.9666 81.345 40.8666 81.0116 44.5999C83.145 45.5999 85.045 46.0999 86.7116 46.0999ZM126.955 72.7999C124.555 72.7999 122.422 71.8332 120.555 69.8999C118.689 67.8999 117.755 65.0999 117.755 61.4999C117.755 59.7666 117.955 57.7999 118.355 55.5999C118.755 53.3999 119.222 51.1666 119.755 48.8999C120.289 46.5666 120.755 44.3999 121.155 42.3999C121.555 40.3332 121.755 38.6332 121.755 37.2999C121.755 35.8999 121.489 34.7999 120.955 33.9999C120.489 33.1332 119.855 32.6999 119.055 32.6999C117.789 32.6999 116.489 33.5666 115.155 35.2999L114.555 34.8999C114.489 33.8332 114.722 32.5666 115.255 31.0999C115.789 29.6332 116.622 28.2332 117.755 26.8999C118.889 25.4999 120.322 24.3332 122.055 23.3999C123.855 22.4666 125.955 21.9999 128.355 21.9999C131.889 21.9999 134.455 23.0332 136.055 25.0999C137.655 27.0999 138.455 29.5332 138.455 32.3999C138.455 32.8666 138.422 33.3666 138.355 33.8999C138.355 34.3666 138.322 34.8332 138.255 35.2999C140.655 30.9666 143.155 27.6666 145.755 25.3999C148.422 23.0666 150.889 21.8999 153.155 21.8999C155.289 21.8999 156.855 22.7332 157.855 24.3999C158.855 26.0666 159.355 28.0666 159.355 30.3999C159.355 32.5332 158.922 34.6999 158.055 36.8999C157.255 39.0999 156.022 40.9332 154.355 42.3999C152.755 43.7999 150.789 44.4666 148.455 44.3999L148.055 44.1999C147.989 42.4666 147.422 41.0999 146.355 40.0999C145.289 39.0999 144.089 38.5999 142.755 38.5999C140.955 38.5999 139.255 39.4999 137.655 41.2999C136.122 43.0999 135.355 45.6999 135.355 49.0999C135.355 51.1666 135.589 53.3999 136.055 55.7999C136.522 58.1999 136.755 60.2332 136.755 61.8999C136.755 63.8999 136.289 65.7332 135.355 67.3999C134.422 69.0666 133.222 70.3999 131.755 71.3999C130.289 72.3332 128.689 72.7999 126.955 72.7999ZM197.456 72.8999C195.123 72.8999 193.089 72.1332 191.356 70.5999C189.623 69.0666 188.756 66.5666 188.756 63.0999C188.756 62.7666 188.756 62.4332 188.756 62.0999C188.756 61.7666 188.789 61.4332 188.856 61.0999C186.856 65.0999 184.589 68.0666 182.056 69.9999C179.589 71.8666 177.089 72.7999 174.556 72.7999C172.223 72.7999 170.023 71.9999 167.956 70.3999C165.889 68.7332 164.223 66.2999 162.956 63.0999C161.689 59.8999 161.056 56.0332 161.056 51.4999C161.056 46.8332 161.689 42.6666 162.956 38.9999C164.289 35.3332 166.023 32.2332 168.156 29.6999C170.289 27.1666 172.623 25.2666 175.156 23.9999C177.689 22.6666 180.156 21.9999 182.556 21.9999C185.223 21.9999 187.623 22.8332 189.756 24.4999C191.889 26.0999 193.356 28.6666 194.156 32.1999C194.356 31.0666 194.489 30.0332 194.556 29.0999C194.689 28.1666 194.756 27.5332 194.756 27.1999C194.823 25.3999 195.723 24.0666 197.456 23.1999C199.256 22.3332 201.223 21.8999 203.356 21.8999C205.223 21.8999 206.989 22.2666 208.656 22.9999C210.323 23.7332 211.456 24.9666 212.056 26.6999L212.256 27.2999C211.456 29.0999 210.656 31.2666 209.856 33.7999C209.056 36.3332 208.323 38.9999 207.656 41.7999C206.989 44.5332 206.456 47.2332 206.056 49.8999C205.656 52.4999 205.456 54.7999 205.456 56.7999C205.456 58.9999 205.689 60.5332 206.156 61.3999C206.623 62.1999 207.189 62.5999 207.856 62.5999C208.989 62.5999 210.023 61.7999 210.956 60.1999L211.756 60.5999C211.756 62.8666 211.023 64.9332 209.556 66.7999C208.089 68.6666 206.256 70.1666 204.056 71.2999C201.856 72.3666 199.656 72.8999 197.456 72.8999ZM181.156 60.1999C182.889 60.1999 184.789 58.6666 186.856 55.5999C188.989 52.4666 190.823 47.9999 192.356 42.1999C192.489 41.5999 192.623 41.0332 192.756 40.4999C192.889 39.8999 192.989 39.3332 193.056 38.7999C191.989 36.3332 190.856 34.5999 189.656 33.5999C188.523 32.5332 187.389 31.9999 186.256 31.9999C184.589 31.9999 183.023 32.8999 181.556 34.6999C180.156 36.4332 178.989 38.6332 178.056 41.2999C177.189 43.9666 176.756 46.6332 176.756 49.2999C176.756 52.9666 177.156 55.6999 177.956 57.4999C178.823 59.2999 179.889 60.1999 181.156 60.1999Z" fill="#1E1E1E"/>
</svg>
