<svg width="188" height="158" viewBox="0 0 188 158" fill="none" xmlns="http://www.w3.org/2000/svg">
<g clip-path="url(#clip0_101_35)">
<g clip-path="url(#clip1_101_35)">
<path d="M82.1055 50.5768C91.9359 28.2086 115.779 12.7423 140.261 12.8772C131.449 18.0647 127.074 28.4078 124.871 38.3876C122.668 48.3674 122.024 58.8057 118.002 68.205C113.98 77.6043 105.324 86.073 95.0916 85.7717C105.726 85.9037 115.556 80.3252 124.172 74.1192C132.792 67.9048 140.994 60.778 150.922 56.9822C160.849 53.1864 173.297 53.5129 180.786 61.0624C171.566 61.9507 163.723 68.2295 157.829 75.3555C151.936 82.4814 147.386 90.6705 141.205 97.5535C135.024 104.437 126.561 110.112 117.294 109.87C107.077 109.611 98.5043 102.394 91.2053 95.2432C95.4653 104.331 103.33 111.674 112.689 115.307C120.397 118.302 129.046 118.886 136.166 123.085C146.24 129.029 151.293 142.297 147.701 153.409C142.995 146.911 133.823 145.455 125.868 146.463C117.911 147.48 110.21 150.396 102.183 150.5C88.9522 150.679 75.9852 142.402 70.5869 130.343C65.1886 118.283 67.6726 103.122 76.6336 93.4229C64.5102 89.5776 50.4326 95.0903 43.0321 105.417C35.6259 115.733 12.9197 138.806 2.78692 130.643C8.91175 126.336 12.655 118.869 12.4418 111.393C12.2354 103.722 8.18238 96.0223 10.4199 88.6851C12.3887 82.2347 18.9855 78.0053 25.6762 77.0464C32.3612 76.0763 39.1465 77.8074 45.5544 79.95C51.9623 82.0925 58.2953 84.6977 65.0023 85.5701C59.9292 78.6725 52.7846 73.6505 46.3037 68.057C39.8228 62.4636 33.6735 55.7603 31.7792 47.4209C29.7209 38.401 33.1455 28.733 39.1644 21.7131C45.1833 14.6933 53.5285 10.0194 62.1592 6.66468C51.696 17.5253 52.7545 37.2427 64.3232 46.9386C68.1955 50.1883 72.9359 52.3522 76.54 55.9083C78.5101 57.8484 82.1769 62.4267 79.5363 64.7265C78.5553 60.0824 80.247 54.8343 82.1112 50.588L82.1055 50.5768Z" fill="#B231A1"/>
<path d="M82.1055 50.5768C91.9359 28.2086 115.779 12.7423 140.261 12.8772C131.449 18.0647 127.074 28.4078 124.871 38.3876C122.668 48.3674 122.024 58.8057 118.002 68.205C113.98 77.6043 105.324 86.073 95.0916 85.7717C105.726 85.9037 115.556 80.3252 124.172 74.1192C132.792 67.9048 140.994 60.778 150.922 56.9822C160.849 53.1864 173.297 53.5129 180.786 61.0624C171.566 61.9507 163.723 68.2295 157.829 75.3555C151.936 82.4814 147.386 90.6705 141.205 97.5535C135.024 104.437 126.561 110.112 117.294 109.87C107.077 109.611 98.5043 102.394 91.2053 95.2432C95.4653 104.331 103.33 111.674 112.689 115.307C120.397 118.302 129.046 118.886 136.166 123.085C146.24 129.029 151.293 142.297 147.701 153.409C142.995 146.911 133.823 145.455 125.868 146.463C117.911 147.48 110.21 150.396 102.183 150.5C88.9522 150.679 75.9852 142.402 70.5869 130.343C65.1886 118.283 67.6726 103.122 76.6336 93.4229C64.5102 89.5776 50.4326 95.0903 43.0321 105.417C35.6259 115.733 12.9197 138.806 2.78692 130.643C8.91175 126.336 12.655 118.869 12.4418 111.393C12.2354 103.722 8.18238 96.0223 10.4199 88.6851C12.3887 82.2347 18.9855 78.0053 25.6762 77.0464C32.3612 76.0763 39.1465 77.8074 45.5544 79.95C51.9623 82.0925 58.2953 84.6977 65.0023 85.5701C59.9292 78.6725 52.7846 73.6505 46.3037 68.057C39.8228 62.4636 33.6735 55.7603 31.7792 47.4209C29.7209 38.401 33.1455 28.733 39.1644 21.7131C45.1833 14.6933 53.5285 10.0194 62.1592 6.66468C51.696 17.5253 52.7545 37.2427 64.3232 46.9386C68.1955 50.1883 72.9359 52.3522 76.54 55.9083C78.5101 57.8484 82.1769 62.4267 79.5363 64.7265C78.5553 60.0824 80.247 54.8343 82.1112 50.588L82.1055 50.5768Z"/>
</g>
</g>
<defs>
<clipPath id="clip0_101_35">
<rect width="188" height="158" fill="white"/>
</clipPath>
<clipPath id="clip1_101_35">
<rect width="153.548" height="154.907" fill="white" transform="translate(45 -18) rotate(17.9592)"/>
</clipPath>
</defs>
</svg>
