<svg width="218" height="80" viewBox="0 0 218 80" fill="none" xmlns="http://www.w3.org/2000/svg">
<g clip-path="url(#clip0_92_29)">
<rect width="80" height="80" rx="40" fill="#F5E8FF"/>
<g clip-path="url(#clip1_92_29)">
<path d="M38.2869 29.0026C41.4737 21.7514 49.2032 16.7376 57.1395 16.7813C54.2829 18.463 52.8645 21.816 52.1505 25.0512C51.4364 28.2864 51.2277 31.6702 49.9237 34.7173C48.6198 37.7643 45.8138 40.5097 42.4967 40.412C45.9441 40.4548 49.1308 38.6464 51.9241 36.6345C54.7183 34.62 57.3772 32.3096 60.5955 31.0791C63.8139 29.8486 67.8491 29.9545 70.2768 32.4018C67.2879 32.6898 64.7455 34.7252 62.8349 37.0353C60.9242 39.3454 59.4494 42.0001 57.4457 44.2314C55.4419 46.4627 52.6983 48.3024 49.6943 48.2242C46.382 48.1402 43.603 45.8006 41.2369 43.4824C42.6179 46.4284 45.1676 48.809 48.2015 49.9867C50.7002 50.9575 53.5039 51.1469 55.8122 52.5082C59.0778 54.4349 60.716 58.7361 59.5515 62.3383C58.026 60.232 55.0524 59.7599 52.4737 60.0867C49.8941 60.4163 47.3978 61.3617 44.7955 61.3955C40.5065 61.4533 36.3029 58.7703 34.5529 54.8608C32.8029 50.9514 33.6081 46.0367 36.5131 42.8923C32.583 41.6458 28.0193 43.4329 25.6203 46.7807C23.2193 50.1248 15.8585 57.6046 12.5737 54.9584C14.5592 53.562 15.7727 51.1413 15.7036 48.7178C15.6367 46.2312 14.3228 43.735 15.0481 41.3565C15.6864 39.2654 17.8249 37.8943 19.9939 37.5835C22.161 37.269 24.3606 37.8302 26.4379 38.5247C28.5152 39.2193 30.5682 40.0638 32.7425 40.3466C31.0979 38.1106 28.7818 36.4826 26.6808 34.6693C24.5799 32.8561 22.5864 30.683 21.9723 27.9796C21.3051 25.0555 22.4152 21.9214 24.3664 19.6457C26.3176 17.37 29.0229 15.8549 31.8208 14.7674C28.4289 18.2881 28.772 24.68 32.5223 27.8232C33.7777 28.8767 35.3144 29.5782 36.4827 30.731C37.1214 31.3599 38.3101 32.8441 37.4541 33.5896C37.136 32.0841 37.6845 30.3828 38.2888 29.0063L38.2869 29.0026Z" fill="#B231A1"/>
<path d="M38.2869 29.0026C41.4737 21.7514 49.2032 16.7376 57.1395 16.7813C54.2829 18.463 52.8645 21.816 52.1505 25.0512C51.4364 28.2864 51.2277 31.6702 49.9237 34.7173C48.6198 37.7643 45.8138 40.5097 42.4967 40.412C45.9441 40.4548 49.1308 38.6464 51.9241 36.6345C54.7183 34.62 57.3772 32.3096 60.5955 31.0791C63.8139 29.8486 67.8491 29.9545 70.2768 32.4018C67.2879 32.6898 64.7455 34.7252 62.8349 37.0353C60.9242 39.3454 59.4494 42.0001 57.4457 44.2314C55.4419 46.4627 52.6983 48.3024 49.6943 48.2242C46.382 48.1402 43.603 45.8006 41.2369 43.4824C42.6179 46.4284 45.1676 48.809 48.2015 49.9867C50.7002 50.9575 53.5039 51.1469 55.8122 52.5082C59.0778 54.4349 60.716 58.7361 59.5515 62.3383C58.026 60.232 55.0524 59.7599 52.4737 60.0867C49.8941 60.4163 47.3978 61.3617 44.7955 61.3955C40.5065 61.4533 36.3029 58.7703 34.5529 54.8608C32.8029 50.9514 33.6081 46.0367 36.5131 42.8923C32.583 41.6458 28.0193 43.4329 25.6203 46.7807C23.2193 50.1248 15.8585 57.6046 12.5737 54.9584C14.5592 53.562 15.7727 51.1413 15.7036 48.7178C15.6367 46.2312 14.3228 43.735 15.0481 41.3565C15.6864 39.2654 17.8249 37.8943 19.9939 37.5835C22.161 37.269 24.3606 37.8302 26.4379 38.5247C28.5152 39.2193 30.5682 40.0638 32.7425 40.3466C31.0979 38.1106 28.7818 36.4826 26.6808 34.6693C24.5799 32.8561 22.5864 30.683 21.9723 27.9796C21.3051 25.0555 22.4152 21.9214 24.3664 19.6457C26.3176 17.37 29.0229 15.8549 31.8208 14.7674C28.4289 18.2881 28.772 24.68 32.5223 27.8232C33.7777 28.8767 35.3144 29.5782 36.4827 30.731C37.1214 31.3599 38.3101 32.8441 37.4541 33.5896C37.136 32.0841 37.6845 30.3828 38.2888 29.0063L38.2869 29.0026Z"/>
</g>
</g>
<path d="M106.32 58.74C105.16 58.78 104 58.68 102.84 58.44C101.68 58.2 100.7 57.7 99.8995 56.94C99.9395 55.94 99.9195 54.46 99.8395 52.5C99.7995 50.54 99.6995 48.36 99.5395 45.96C99.3795 43.52 99.1195 41.06 98.7595 38.58C98.4395 36.1 97.9995 33.82 97.4395 31.74C96.9195 29.62 96.2795 27.92 95.5195 26.64C94.7595 25.36 93.8595 24.72 92.8195 24.72C91.8995 24.72 90.8595 25.22 89.6995 26.22L89.2795 25.86C90.3995 22.42 91.8595 19.8 93.6595 18C95.4995 16.2 97.3995 15.3 99.3595 15.3C101.08 15.3 102.52 15.9 103.68 17.1C104.84 18.3 105.76 19.92 106.44 21.96C107.16 23.96 107.66 26.22 107.94 28.74C108.26 31.22 108.42 33.76 108.42 36.36C108.42 38.44 108.34 40.48 108.18 42.48C108.02 44.48 107.8 46.32 107.52 48C109.64 45.32 111.42 42.4 112.86 39.24C114.3 36.04 115.4 32.88 116.16 29.76C116.92 26.6 117.3 23.76 117.3 21.24C117.3 20.76 117.28 20.28 117.24 19.8C117.2 19.28 117.14 18.82 117.06 18.42C117.9 17.34 118.98 16.52 120.3 15.96C121.62 15.36 122.94 15.06 124.26 15.06C125.54 15.06 126.66 15.34 127.62 15.9C128.58 16.42 129.18 17.26 129.42 18.42C128.9 22.22 127.86 26.02 126.3 29.82C124.78 33.62 122.92 37.3 120.72 40.86C118.52 44.38 116.16 47.66 113.64 50.7C111.16 53.74 108.72 56.42 106.32 58.74ZM139.927 58.92C137.007 58.92 134.587 58.34 132.667 57.18C130.747 55.98 129.307 54.42 128.347 52.5C127.387 50.54 126.907 48.44 126.907 46.2C126.907 44.08 127.307 41.96 128.107 39.84C128.947 37.68 130.147 35.72 131.707 33.96C133.307 32.2 135.227 30.78 137.467 29.7C139.747 28.62 142.307 28.08 145.147 28.08C148.667 28.08 151.227 28.88 152.827 30.48C154.467 32.04 155.287 33.94 155.287 36.18C155.287 38.1 154.767 39.88 153.727 41.52C152.727 43.12 151.387 44.42 149.707 45.42C148.027 46.38 146.187 46.86 144.187 46.86C143.147 46.86 142.087 46.7 141.007 46.38C139.927 46.06 138.867 45.56 137.827 44.88C138.027 47.36 138.747 49.16 139.987 50.28C141.227 51.4 142.707 51.96 144.427 51.96C145.627 51.96 146.827 51.74 148.027 51.3C149.227 50.82 150.327 50.22 151.327 49.5C152.367 48.74 153.167 47.94 153.727 47.1L154.147 47.4C154.147 49.48 153.707 51.26 152.827 52.74C151.987 54.18 150.867 55.36 149.467 56.28C148.067 57.2 146.527 57.88 144.847 58.32C143.207 58.72 141.567 58.92 139.927 58.92ZM141.307 42.72C142.587 42.72 143.627 42.36 144.427 41.64C145.227 40.88 145.827 40 146.227 39C146.627 38 146.827 37.12 146.827 36.36C146.827 35.44 146.567 34.68 146.047 34.08C145.527 33.44 144.807 33.12 143.887 33.12C143.167 33.12 142.367 33.38 141.487 33.9C140.647 34.42 139.887 35.32 139.207 36.6C138.527 37.84 138.087 39.58 137.887 41.82C139.167 42.42 140.307 42.72 141.307 42.72ZM165.453 58.74C164.013 58.74 162.733 58.16 161.613 57C160.493 55.8 159.933 54.12 159.933 51.96C159.933 50.92 160.053 49.74 160.293 48.42C160.533 47.1 160.813 45.76 161.133 44.4C161.453 43 161.733 41.7 161.973 40.5C162.213 39.26 162.333 38.24 162.333 37.44C162.333 36.6 162.173 35.94 161.853 35.46C161.573 34.94 161.193 34.68 160.713 34.68C159.953 34.68 159.173 35.2 158.373 36.24L158.013 36C157.973 35.36 158.113 34.6 158.433 33.72C158.753 32.84 159.253 32 159.933 31.2C160.613 30.36 161.473 29.66 162.513 29.1C163.593 28.54 164.853 28.26 166.293 28.26C168.413 28.26 169.953 28.88 170.913 30.12C171.873 31.32 172.353 32.78 172.353 34.5C172.353 34.78 172.333 35.08 172.293 35.4C172.293 35.68 172.273 35.96 172.233 36.24C173.673 33.64 175.173 31.66 176.733 30.3C178.333 28.9 179.813 28.2 181.173 28.2C182.453 28.2 183.393 28.7 183.993 29.7C184.593 30.7 184.893 31.9 184.893 33.3C184.893 34.58 184.633 35.88 184.113 37.2C183.633 38.52 182.893 39.62 181.893 40.5C180.933 41.34 179.753 41.74 178.353 41.7L178.113 41.58C178.073 40.54 177.733 39.72 177.093 39.12C176.453 38.52 175.733 38.22 174.933 38.22C173.853 38.22 172.833 38.76 171.873 39.84C170.953 40.92 170.493 42.48 170.493 44.52C170.493 45.76 170.633 47.1 170.913 48.54C171.193 49.98 171.333 51.2 171.333 52.2C171.333 53.4 171.053 54.5 170.493 55.5C169.933 56.5 169.213 57.3 168.333 57.9C167.453 58.46 166.493 58.74 165.453 58.74ZM207.753 58.8C206.353 58.8 205.133 58.34 204.093 57.42C203.053 56.5 202.533 55 202.533 52.92C202.533 52.72 202.533 52.52 202.533 52.32C202.533 52.12 202.553 51.92 202.593 51.72C201.393 54.12 200.033 55.9 198.513 57.06C197.033 58.18 195.533 58.74 194.013 58.74C192.613 58.74 191.293 58.26 190.053 57.3C188.813 56.3 187.813 54.84 187.053 52.92C186.293 51 185.913 48.68 185.913 45.96C185.913 43.16 186.293 40.66 187.053 38.46C187.853 36.26 188.893 34.4 190.173 32.88C191.453 31.36 192.853 30.22 194.373 29.46C195.893 28.66 197.373 28.26 198.813 28.26C200.413 28.26 201.853 28.76 203.133 29.76C204.413 30.72 205.293 32.26 205.773 34.38C205.893 33.7 205.973 33.08 206.013 32.52C206.093 31.96 206.133 31.58 206.133 31.38C206.173 30.3 206.713 29.5 207.753 28.98C208.833 28.46 210.013 28.2 211.293 28.2C212.413 28.2 213.473 28.42 214.473 28.86C215.473 29.3 216.153 30.04 216.513 31.08L216.633 31.44C216.153 32.52 215.673 33.82 215.193 35.34C214.713 36.86 214.273 38.46 213.873 40.14C213.473 41.78 213.153 43.4 212.913 45C212.673 46.56 212.553 47.94 212.553 49.14C212.553 50.46 212.693 51.38 212.973 51.9C213.253 52.38 213.593 52.62 213.993 52.62C214.673 52.62 215.293 52.14 215.853 51.18L216.333 51.42C216.333 52.78 215.893 54.02 215.013 55.14C214.133 56.26 213.033 57.16 211.713 57.84C210.393 58.48 209.073 58.8 207.753 58.8ZM197.973 51.18C199.013 51.18 200.153 50.26 201.393 48.42C202.673 46.54 203.773 43.86 204.693 40.38C204.773 40.02 204.853 39.68 204.933 39.36C205.013 39 205.073 38.66 205.113 38.34C204.473 36.86 203.793 35.82 203.073 35.22C202.393 34.58 201.713 34.26 201.033 34.26C200.033 34.26 199.093 34.8 198.213 35.88C197.373 36.92 196.673 38.24 196.113 39.84C195.593 41.44 195.333 43.04 195.333 44.64C195.333 46.84 195.573 48.48 196.053 49.56C196.573 50.64 197.213 51.18 197.973 51.18Z" fill="#1E1E1E"/>
<defs>
<clipPath id="clip0_92_29">
<rect width="80" height="80" rx="40" fill="white"/>
</clipPath>
<clipPath id="clip1_92_29">
<rect width="78.8111" height="68.0133" fill="white" transform="translate(15 -2) rotate(17.9592)"/>
</clipPath>
</defs>
</svg>
